<?xml version="1.0" standalone="no"?>
<!DOCTYPE svg PUBLIC "-//W3C//DTD SVG 20010904//EN"
 "http://www.w3.org/TR/2001/REC-SVG-20010904/DTD/svg10.dtd">
<svg version="1.0" xmlns="http://www.w3.org/2000/svg"
 width="200.000000pt" height="200.000000pt" viewBox="0 0 200.000000 200.000000"
 preserveAspectRatio="xMidYMid meet">
<metadata>
Created by potrace 1.15, written by Peter Selinger 2001-2017
</metadata>
<g transform="translate(0.000000,200.000000) scale(0.100000,-0.100000)"
fill="#000000" stroke="none">
<path d="M1355 1410 l-70 -70 170 -170 170 -170 -170 -170 -170 -170 73 -72
72 -73 235 235 c129 129 235 239 235 245 0 6 -107 117 -238 248 l-237 237 -70
-70z"/>
<path d="M335 1243 c-116 -119 -216 -225 -224 -237 -14 -19 -2 -32 220 -248
l234 -227 70 69 70 70 -169 162 -168 163 156 162 c86 88 156 165 156 170 0 9
-122 133 -130 133 -3 0 -99 -97 -215 -217z"/>
<path d="M675 1238 c3 -13 23 -124 45 -248 22 -124 42 -235 45 -247 5 -21 11
-23 65 -23 33 0 60 3 60 8 0 4 20 119 45 256 25 137 45 255 45 262 0 10 -13
14 -43 14 l-44 0 -28 -187 c-15 -104 -31 -198 -34 -211 -4 -14 -18 57 -34 170
-16 106 -31 201 -33 211 -4 13 -16 17 -50 17 -41 0 -44 -2 -39 -22z"/>
<path d="M1020 990 l0 -270 119 0 c118 0 120 0 141 27 19 25 21 36 16 128 -6
131 -6 115 0 232 6 100 5 103 -20 128 -24 24 -30 25 -141 25 l-115 0 0 -270z
m190 120 l0 -80 -50 0 -50 0 0 80 0 80 50 0 50 0 0 -80z m-2 -237 l3 -83 -51
0 -50 0 0 86 0 85 48 -3 47 -3 3 -82z"/>
</g>
</svg>
