<svg height="480pt" viewBox="0 0 480 480" width="480pt" xmlns="http://www.w3.org/2000/svg"><path d="m112 224h64v144h-64zm0 0" fill="#4398d1"/><path d="m128 240c.042969-5.355469.464844-10.703125 1.273438-16h-16.28125c-6.429688 51.105469 18.398437 101.082031 63.007812 126.832031v-18.992187c-30.078125-20.902344-48.007812-55.210938-48-91.839844zm0 0" fill="#3087c2"/><path d="m144 144-16 40h32zm0 0" fill="#4398d1"/><path d="m128 184-16 40h64l-16-40zm0 0" fill="#fdb62f"/><path d="m208 192h64v208h-64zm0 0" fill="#e8594a"/><path d="m304 192h64v184h-64zm0 0" fill="#4398d1"/><g fill="#2181c2"><path d="m136 224h16v144h-16zm0 0"/><path d="m304 224h24v16h-24zm0 0"/><path d="m304 256h24v16h-24zm0 0"/><path d="m304 288h24v16h-24zm0 0"/></g><path d="m232 216h16v16h-16zm0 0" fill="#ff8073"/><path d="m232 248h16v40h-16zm0 0" fill="#ff8073"/><path d="m472 272v-64c0-4.417969-3.582031-8-8-8h-29.894531c-3.683594-.03125-6.871094-2.570312-7.722657-6.152344-4.613281-18.667968-12.023437-36.53125-21.984374-52.984375-1.929688-3.136719-1.46875-7.183593 1.113281-9.808593l21.167969-21.160157c1.503906-1.5 2.347656-3.535156 2.347656-5.660156 0-2.121094-.84375-4.15625-2.347656-5.660156l-45.253907-45.253907c-1.503906-1.503906-3.539062-2.347656-5.660156-2.347656-2.125 0-4.160156.84375-5.660156 2.347656l-21.160157 21.167969c-2.625 2.582031-6.671874 3.042969-9.808593 1.113281-16.453125-9.964843-34.316407-17.382812-52.984375-22-3.578125-.851562-6.117188-4.027343-6.152344-7.707031v-29.894531c0-4.417969-3.582031-8-8-8h-64c-4.417969 0-8 3.582031-8 8v29.894531c-.03125 3.683594-2.570312 6.871094-6.152344 7.722657-18.667968 4.613281-36.53125 12.023437-52.984375 21.984374-3.136719 1.929688-7.183593 1.46875-9.808593-1.113281l-21.160157-21.167969c-1.5-1.503906-3.535156-2.347656-5.660156-2.347656-2.121094 0-4.15625.84375-5.660156 2.347656l-45.253907 45.253907c-1.503906 1.503906-2.347656 3.539062-2.347656 5.660156 0 2.125.84375 4.160156 2.347656 5.660156l21.167969 21.160157c2.582031 2.625 3.042969 6.671874 1.113281 9.808593-9.964843 16.453125-17.382812 34.316407-22 52.984375-.851562 3.578125-4.027343 6.117188-7.707031 6.152344h-29.894531c-4.417969 0-8 3.582031-8 8v64c0 4.417969 3.582031 8 8 8h29.894531c3.683594.03125 6.871094 2.570312 7.722657 6.152344 4.613281 18.667968 12.023437 36.53125 21.984374 52.984375 1.929688 3.136719 1.46875 7.183593-1.113281 9.808593l-21.167969 21.160157c-1.503906 1.5-2.347656 3.535156-2.347656 5.660156 0 2.121094.84375 4.15625 2.347656 5.660156l45.253907 45.253907c1.503906 1.503906 3.539062 2.347656 5.660156 2.347656 2.125 0 4.160156-.84375 5.660156-2.347656l21.160157-21.167969c2.625-2.582031 6.671874-3.042969 9.808593-1.113281 16.453125 9.964843 34.316407 17.382812 52.984375 22 3.582032.851562 6.121094 4.039062 6.152344 7.722656v29.878906c0 4.417969 3.582031 8 8 8h64c4.417969 0 8-3.582031 8-8v-29.894531c.03125-3.683594 2.570312-6.871094 6.152344-7.722657 18.667968-4.613281 36.53125-12.023437 52.984375-21.984374 3.136719-1.929688 7.183593-1.46875 9.808593 1.113281l21.160157 21.167969c1.5 1.503906 3.535156 2.347656 5.660156 2.347656 2.121094 0 4.15625-.84375 5.660156-2.347656l45.253907-45.253907c1.503906-1.503906 2.347656-3.539062 2.347656-5.660156 0-2.125-.84375-4.160156-2.347656-5.660156l-21.167969-21.160157c-2.582031-2.625-3.042969-6.671874-1.113281-9.808593 9.964843-16.453125 17.382812-34.316407 22-52.984375.851562-3.578125 4.027343-6.117188 7.707031-6.152344h29.894531c4.417969 0 8-3.582031 8-8zm-215.359375 94.953125c-54.355469 7.109375-107.203125-21.179687-131.429687-70.351563-24.226563-49.175781-14.449219-108.316406 24.3125-147.078124 38.761718-38.761719 97.902343-48.539063 147.078124-24.3125 49.171876 24.226562 77.460938 77.074218 70.351563 131.429687-7.558594 57.503906-52.808594 102.753906-110.3125 110.3125zm0 0" fill="#87ced9"/><path d="m208 192-24-80 56-56 56 56-24 80zm0 0" fill="#fdb62f"/><path d="m143.734375 120.34375-10.132813-12.390625c4.703126-3.839844 9.617188-7.40625 14.726563-10.6875l8.640625 13.46875c-4.589844 2.949219-9.007812 6.15625-13.234375 9.609375zm0 0" fill="#95e4f0"/><path d="m95.71875 194.105469-15.4375-4.210938c6.894531-25.195312 19.847656-48.328125 37.726562-67.375l11.65625 10.960938c-16.089843 17.136719-27.742187 37.949219-33.945312 60.625zm0 0" fill="#95e4f0"/><path d="m464 200h-29.894531c-3.683594-.03125-6.871094-2.570312-7.722657-6.152344-4.613281-18.667968-12.023437-36.53125-21.984374-52.984375-1.929688-3.136719-1.46875-7.183593 1.113281-9.808593l21.167969-21.160157c1.503906-1.5 2.347656-3.535156 2.347656-5.660156 0-2.121094-.84375-4.15625-2.347656-5.660156l-23.265626-23.253907c-17.082031 31.671876-37.101562 61.667969-59.789062 89.601563 38.777344 53.417969 30.558594 127.566406-18.980469 171.195313-49.535156 43.628906-124.128906 42.417968-172.21875-2.796876-31.625 20.601563-63.035156 38.679688-92.914062 54.289063l39.0625 39.0625c1.503906 1.503906 3.539062 2.347656 5.660156 2.347656 2.125 0 4.160156-.84375 5.660156-2.347656l21.160157-21.160156c2.625-2.582031 6.671874-3.042969 9.808593-1.113281 16.453125 9.964843 34.316407 17.382812 52.984375 22 3.582032.851562 6.121094 4.039062 6.152344 7.722656v29.878906c0 4.417969 3.582031 8 8 8h64c4.417969 0 8-3.582031 8-8v-29.894531c.03125-3.683594 2.570312-6.871094 6.152344-7.722657 18.667968-4.613281 36.53125-12.023437 52.984375-21.984374 3.136719-1.929688 7.183593-1.46875 9.808593 1.113281l21.160157 21.160156c1.5 1.503906 3.535156 2.347656 5.660156 2.347656 2.121094 0 4.15625-.84375 5.660156-2.347656l45.253907-45.246094c1.503906-1.503906 2.347656-3.539062 2.347656-5.660156 0-2.125-.84375-4.160156-2.347656-5.660156l-21.167969-21.160157c-2.582031-2.625-3.042969-6.671874-1.113281-9.808593 9.964843-16.453125 17.382812-34.316407 22-52.984375.851562-3.578125 4.027343-6.117188 7.707031-6.152344h29.894531c4.417969 0 8-3.582031 8-8v-64c0-4.417969-3.582031-8-8-8zm0 0" fill="#71c4d1"/><path d="m240 352c-10.835938-.011719-21.617188-1.589844-32-4.695312v16.605468c15.875 4.085938 32.378906 5.117188 48.640625 3.042969 5.179687-.691406 10.308594-1.710937 15.359375-3.050781v-16.597656c-10.382812 3.105468-21.164062 4.683593-32 4.695312zm0 0" fill="#db4a3b"/><path d="m366.953125 256.640625c2.828125-21.902344-.023437-44.164063-8.289063-64.640625h-17.601562c23.628906 49.394531 7.929688 108.632812-37.0625 139.839844v18.960937c34.464844-19.910156 57.726562-54.703125 62.953125-94.160156zm0 0" fill="#3087c2"/><path d="m296 112-56-56-3.199219 3.199219c9.480469 64.847656.144531 110.402343-6.832031 132.800781h42.03125zm0 0" fill="#fd9d2f"/><path d="m247.945312 122.191406.054688-66.191406h-16l-.054688 66.257812c-6.257812 3.644532-9.285156 11.039063-7.382812 18.023438 1.902344 6.988281 8.257812 11.828125 15.5 11.800781 7.242188-.03125 13.5625-4.921875 15.40625-11.921875 1.847656-7.003906-1.238281-14.371094-7.523438-17.96875zm0 0" fill="#fd882f"/><path d="m232 216h16v16h-16zm0 0"/><path d="m232 248h16v40h-16zm0 0"/><path d="m464 192-29.847656-.070312c-4.804688-19.464844-12.554688-38.082032-22.984375-55.203126l21.175781-21.175781c6.242188-6.246093 6.242188-16.367187 0-22.613281l-45.273438-45.28125c-6.246093-6.242188-16.367187-6.242188-22.613281 0l-21.183593 21.144531c-17.148438-10.414062-35.789063-18.136719-55.273438-22.90625v-29.894531c0-8.835938-7.164062-16-16-16h-64c-8.835938 0-16 7.164062-16 16l-.070312 29.847656c-19.464844 4.804688-38.082032 12.554688-55.203126 22.984375l-21.191406-21.175781c-6.246094-6.242188-16.367187-6.242188-22.613281 0l-45.265625 45.273438c-6.242188 6.246093-6.242188 16.367187 0 22.613281l21.144531 21.183593c-10.414062 17.148438-18.136719 35.789063-22.90625 55.273438h-29.894531c-8.835938 0-16 7.164062-16 16v64c0 8.835938 7.164062 16 16 16l29.847656.070312c4.804688 19.464844 12.554688 38.082032 22.984375 55.203126l-21.175781 21.191406c-6.242188 6.246094-6.242188 16.367187 0 22.613281l45.265625 45.265625c6.246094 6.242188 16.367187 6.242188 22.613281 0l21.183594-21.097656c17.152344 10.398437 35.796875 18.105468 55.28125 22.859375v29.894531c0 8.835938 7.164062 16 16 16h64c8.835938 0 16-7.164062 16-16l.070312-29.847656c19.464844-4.804688 38.082032-12.554688 55.203126-22.984375l21.175781 21.175781c6.246093 6.242188 16.367187 6.242188 22.613281 0l45.265625-45.265625c6.242187-6.246094 6.242187-16.367187 0-22.613281l-21.097656-21.183594c10.402343-17.152344 18.117187-35.792969 22.875-55.28125h29.894531c8.835938 0 16-7.164062 16-16v-64c0-8.835938-7.164062-16-16-16zm0 80h-29.894531c-7.367188.03125-13.757813 5.082031-15.488281 12.238281-4.421876 17.890625-11.523438 35.003907-21.074219 50.761719-3.828125 6.289062-2.875 14.375 2.3125 19.601562l21.167969 21.167969-45.253907 45.253907-21.167969-21.167969c-5.226562-5.1875-13.324218-6.140625-19.609374-2.304688-15.757813 9.546875-32.875 16.648438-50.761719 21.066407-7.152344 1.734374-12.203125 8.125-12.230469 15.488281v29.894531h-64v-29.894531c-.03125-7.367188-5.082031-13.757813-12.238281-15.488281-17.890625-4.421876-35.003907-11.523438-50.761719-21.074219-2.519531-1.527344-5.410156-2.335938-8.359375-2.34375-4.203125.007812-8.230469 1.679687-11.199219 4.648437l-21.167968 21.167969-45.296876-45.246094 21.167969-21.167969c5.1875-5.226562 6.140625-13.324218 2.304688-19.609374-9.546875-15.757813-16.648438-32.875-21.066407-50.761719-1.734374-7.152344-8.125-12.203125-15.488281-12.230469h-29.894531v-64h29.894531c7.367188-.03125 13.757813-5.082031 15.488281-12.238281 4.421876-17.890625 11.523438-35.003907 21.074219-50.761719 3.828125-6.289062 2.875-14.375-2.3125-19.601562l-21.167969-21.167969 45.253907-45.253907 21.167969 21.167969c5.226562 5.1875 13.324218 6.140625 19.609374 2.304688 15.757813-9.546875 32.875-16.648438 50.761719-21.066407 7.152344-1.734374 12.203125-8.125 12.230469-15.488281v-29.894531h64v29.894531c.03125 7.367188 5.082031 13.757813 12.238281 15.488281 17.890625 4.421876 35.003907 11.523438 50.761719 21.074219 6.289062 3.828125 14.375 2.875 19.601562-2.3125l21.167969-21.167969 45.253907 45.253907-21.167969 21.167969c-5.1875 5.226562-6.140625 13.324218-2.304688 19.609374 9.546875 15.757813 16.648438 32.875 21.066407 50.761719 1.734374 7.152344 8.125 12.203125 15.488281 12.230469h29.894531zm0 0"/><path d="m316.503906 127.542969-9.007812 13.257812c16.214844 11.023438 29.476562 25.859375 38.625 43.199219h-42.121094c-4.417969 0-8 3.582031-8 8v154.007812c-5.152344 2.75-10.5 5.113282-16 7.070313v-159.902344l23.664062-78.878906c.84375-2.820313.074219-5.871094-2.007812-7.953125l-56-56c-3.125-3.121094-8.1875-3.121094-11.3125 0l-56 56c-2.082031 2.082031-2.851562 5.132812-2.007812 7.953125l23.664062 78.878906v159.921875c-5.5-1.984375-10.847656-4.371094-16-7.136718v-121.960938c0-1.015625-.191406-2.023438-.566406-2.96875l-26.832032-67.078125c4.921876-4.824219 10.246094-9.226563 15.910157-13.152344l-9.023438-13.207031c-31.835937 21.628906-53.003906 55.75-58.246093 93.882812-5.242188 38.132813 5.9375 76.695313 30.757812 106.117188v.40625h.375c2.402344 2.792969 4.800781 5.535156 7.457031 8.167969 25.476563 25.570312 60.109375 39.910156 96.207031 39.832031 5.886719 0 11.761719-.375 17.601563-1.113281 55.988281-7.300781 101.644531-48.4375 114.71875-103.371094 13.070313-54.929687-9.15625-112.222656-55.855469-143.964844zm-85.015625-51.710938.457031 46.398438c-6.257812 3.648437-9.285156 11.042969-7.382812 18.027343 1.902344 6.988282 8.257812 11.828126 15.5 11.796876 7.242188-.027344 13.5625-4.917969 15.40625-11.917969 1.847656-7.003907-1.238281-14.371094-7.523438-17.96875l-.464843-47.398438 39.480469 39.488281-20.914063 69.742188h-52.09375l-20.914063-69.71875zm-107.671875 140.167969 9.597656-24h21.171876l9.597656 24zm17.785156-44.433594c1.023438-1.46875 1.957032-3 3.054688-4.421875l3.527344 8.855469h-8.367188zm-21.136718 60.433594h15.535156v67.601562c-11.730469-20.511718-17.136719-44.03125-15.535156-67.601562zm31.535156 89.320312v-89.320312h16v103.847656c-4.535156-3.359375-8.828125-7.035156-12.847656-11-1.128906-1.121094-2.082032-2.367187-3.152344-3.527344zm103.640625 37.6875c-13.207031 1.664063-26.597656 1.15625-39.640625-1.503906v-157.503906h48v157.601562c-2.761719.535157-5.535156 1.054688-8.359375 1.40625zm103.367187-103.367187c-4.273437 31.941406-21.214843 60.820313-47.007812 80.136719v-31.777344h16v-16h-16v-16h16v-16h-16v-16h16v-16h-16v-24h41.078125c6.285156 17.832031 8.316406 36.886719 5.929687 55.640625zm0 0"/><path d="m156.992188 110.734375-8.640626-13.46875c-5.117187 3.277344-10.039062 6.847656-14.75 10.6875l10.109376 12.390625c4.242187-3.453125 8.675781-6.660156 13.28125-9.609375zm0 0"/><path d="m118.007812 122.519531c-17.878906 19.046875-30.832031 42.179688-37.726562 67.375l15.4375 4.210938c6.203125-22.675781 17.855469-43.488281 33.945312-60.625zm0 0"/></svg>