<svg id="Capa_1" enable-background="new 0 0 512.389 512.389" height="512" viewBox="0 0 512.389 512.389" width="512" xmlns="http://www.w3.org/2000/svg"><g><g><g><g><path d="m277.977 448.336v-27.794h-115.243v27.794c.478 28.829-15.912 56.553-15.912 56.553h147.067s-16.39-27.724-15.912-56.553z" fill="#acacac"/></g><g><path d="m162.733 420.538h115.246v20.032h-115.246z" fill="#9c9c9c"/></g><g><path d="m422.49 420.541h-404.268c-5.739 0-10.391-4.652-10.391-10.391v-248.534c0-5.739 4.652-10.391 10.391-10.391h404.268c5.739 0 10.391 4.652 10.391 10.391v248.534c0 5.739-4.652 10.391-10.391 10.391z" fill="#acacac"/></g><g><path d="m432.882 161.618v248.535c0 5.737-4.65 10.387-10.396 10.387h-20.262c5.737 0 10.387-4.65 10.387-10.387v-248.535c0-5.737-4.65-10.396-10.387-10.396h20.262c5.746 0 10.396 4.658 10.396 10.396z" fill="#9c9c9c"/></g><g><path d="m432.882 370.924v39.229c0 5.737-4.65 10.387-10.396 10.387h-404.26c-5.746 0-10.396-4.65-10.396-10.387v-39.229z" fill="#5a5a5a"/></g><g><path d="m432.88 370.928v39.223c0 5.739-4.647 10.387-10.397 10.387h-20.263c5.739 0 10.387-4.647 10.387-10.387v-39.223z" fill="#444"/></g><g><path d="m40.911 370.924v-179.6c0-5.267 4.067-9.537 9.083-9.537h340.722c5.017 0 9.083 4.27 9.083 9.537v179.6z" fill="#c4e2ff"/></g><g><path d="m399.801 191.324v179.6h-19.947v-179.6c0-5.266-4.068-9.54-9.086-9.54h19.947c5.019 0 9.086 4.273 9.086 9.54z" fill="#a5d5f9"/></g></g><g><g><path d="m292.614 370.924h-201.637v-242.122c0-6.151 4.987-11.138 11.138-11.138h179.361c6.151 0 11.138 4.987 11.138 11.138z" fill="#eaf6ff"/></g><g><path d="m292.614 128.799v242.129h-20.032v-242.129c0-6.15-4.988-11.138-11.138-11.138h20.032c6.15 0 11.138 4.988 11.138 11.138z" fill="#d8ecfe"/></g><g><path d="m336.334 77.294c-.26-39.135-32.468-70.584-71.725-69.775-38.477.792-69.391 32.893-68.78 71.373.407 25.605 14.494 47.843 35.235 59.789 3.845 2.215 7.017 5.431 9.274 9.251l20.751 35.126c2.567 4.345 8.868 4.303 11.377-.076l20.282-35.398c2.202-3.843 5.32-7.102 9.129-9.362 20.77-12.324 34.629-35.036 34.457-60.928z" fill="#e94444"/></g><g><path d="m336.334 77.296c.17 25.892-13.692 48.598-34.455 60.928-3.806 2.254-6.931 5.519-9.135 9.355l-20.283 35.407c-2.504 4.377-8.804 4.417-11.368.07l-6.23-10.537 18.189-31.741c2.204-3.846 5.319-7.101 9.125-9.365 20.773-12.32 34.636-35.026 34.455-60.928-.18-26.873-15.415-50.12-37.66-61.789 32.463 6.02 57.132 34.375 57.362 68.6z" fill="#d83131"/></g><g><circle cx="266.078" cy="77.761" fill="#e2e2e2" r="37.773"/></g><g><path d="m303.852 77.506c.14 20.864-16.667 37.891-37.52 38.021-9.525.06-18.249-3.405-24.93-9.185 1.893.28 3.836.421 5.809.411 20.854-.14 37.661-17.158 37.52-38.021-.08-11.338-5.138-21.474-13.091-28.335 18.12 2.664 32.082 18.229 32.212 37.109z" fill="#cecece"/></g></g><g><g><circle cx="73.635" cy="40.416" fill="#f4d902" r="17.342"/></g><g><circle cx="487.217" cy="248.983" fill="#f4d902" r="17.342"/></g><g><path d="m90.98 40.417c0 9.575-7.772 17.338-17.348 17.338-7.292 0-13.532-4.497-16.096-10.877 1.512.431 3.105.661 4.748.661 9.575 0 17.338-7.762 17.338-17.348 0-2.284-.441-4.457-1.242-6.45 7.272 2.062 12.6 8.743 12.6 16.676z" fill="#e3ca00"/></g><g><path d="m504.555 248.982c0 9.575-7.762 17.338-17.338 17.338-7.292 0-13.532-4.497-16.096-10.878 1.512.431 3.105.661 4.748.661 9.575 0 17.338-7.762 17.338-17.338 0-2.284-.441-4.467-1.242-6.46 7.271 2.063 12.59 8.744 12.59 16.677z" fill="#e3ca00"/></g></g></g><g><path d="m115.387 47.917h28.246c.351 0 .636.285.636.635v41.541c0 4.143 3.357 7.5 7.5 7.5s7.5-3.357 7.5-7.5v-41.542c0-8.621-7.014-15.635-15.636-15.635h-28.246c-4.143 0-7.5 3.357-7.5 7.5s3.357 7.501 7.5 7.501z"/><path d="m73.635 65.258c13.698 0 24.842-11.144 24.842-24.842s-11.144-24.842-24.842-24.842-24.842 11.144-24.842 24.843 11.144 24.841 24.842 24.841zm0-34.684c5.427 0 9.842 4.415 9.842 9.843 0 5.427-4.415 9.842-9.842 9.842s-9.842-4.415-9.842-9.842c0-5.428 4.415-9.843 9.842-9.843z"/><path d="m125.729 170.327h66.066c4.143 0 7.5-3.357 7.5-7.5s-3.357-7.5-7.5-7.5h-66.066c-4.143 0-7.5 3.357-7.5 7.5s3.357 7.5 7.5 7.5z"/><path d="m125.729 202.914h89.432c4.143 0 7.5-3.357 7.5-7.5s-3.357-7.5-7.5-7.5h-89.432c-4.143 0-7.5 3.357-7.5 7.5s3.357 7.5 7.5 7.5z"/><path d="m257.862 220.501h-132.133c-4.143 0-7.5 3.357-7.5 7.5s3.357 7.5 7.5 7.5h132.133c4.143 0 7.5-3.357 7.5-7.5s-3.358-7.5-7.5-7.5z"/><path d="m257.862 253.087h-132.133c-4.143 0-7.5 3.357-7.5 7.5s3.357 7.5 7.5 7.5h132.133c4.143 0 7.5-3.357 7.5-7.5s-3.358-7.5-7.5-7.5z"/><path d="m257.862 285.674h-132.133c-4.143 0-7.5 3.357-7.5 7.5s3.357 7.5 7.5 7.5h132.133c4.143 0 7.5-3.357 7.5-7.5s-3.358-7.5-7.5-7.5z"/><path d="m257.862 318.261h-132.133c-4.143 0-7.5 3.357-7.5 7.5s3.357 7.5 7.5 7.5h132.133c4.143 0 7.5-3.357 7.5-7.5s-3.358-7.5-7.5-7.5z"/><path d="m266.068 123.033c.104 0 .208 0 .312-.001 12.093-.08 23.43-4.865 31.924-13.473 8.493-8.607 13.127-20.008 13.047-32.1-.08-12.093-4.865-23.43-13.473-31.924-8.607-8.493-19.994-13.166-32.1-13.047-7.697.051-15.291 2.07-21.957 5.841-3.606 2.039-4.876 6.614-2.837 10.22 2.038 3.606 6.616 4.877 10.22 2.837 4.449-2.516 9.523-3.863 14.674-3.897 8.069-.086 15.708 3.045 21.464 8.724 5.756 5.68 8.955 13.261 9.009 21.347s-3.044 15.709-8.724 21.464c-5.68 5.756-13.261 8.955-21.347 9.009-.07.001-.14.001-.209.001-8.008 0-15.549-3.094-21.255-8.725-5.756-5.68-8.955-13.261-9.009-21.352-.01-1.277.063-2.567.215-3.834.492-4.113-2.443-7.846-6.556-8.339-4.108-.493-7.847 2.443-8.339 6.556-.226 1.893-.334 3.819-.32 5.722.08 12.093 4.865 23.431 13.473 31.924 8.534 8.421 19.811 13.047 31.788 13.047z"/><path d="m487.217 224.14c-13.698 0-24.842 11.145-24.842 24.843s11.144 24.842 24.842 24.842 24.842-11.144 24.842-24.842-11.144-24.843-24.842-24.843zm0 34.685c-5.427 0-9.842-4.415-9.842-9.842 0-5.428 4.415-9.843 9.842-9.843s9.842 4.415 9.842 9.843c0 5.427-4.415 9.842-9.842 9.842z"/><path d="m207.511 403.232h25.689c4.143 0 7.5-3.357 7.5-7.5s-3.357-7.5-7.5-7.5h-25.689c-4.143 0-7.5 3.357-7.5 7.5s3.357 7.5 7.5 7.5z"/><path d="m443.623 241.483h-3.242v-79.867c0-9.865-8.026-17.892-17.892-17.892h-115.247c22.791-14.254 36.771-39.555 36.592-66.48-.14-20.975-8.495-40.583-23.529-55.212-15.03-14.627-34.85-22.483-55.85-22.012-42.653.878-76.803 36.313-76.125 78.989.173 10.895 2.678 21.49 7.128 31.154h-93.344c-10.276 0-18.638 8.36-18.638 18.638v14.923h-65.254c-9.865 0-17.892 8.026-17.892 17.892v248.534.002c0 2.102.384 4.112 1.053 5.988 2.471 6.924 9.076 11.902 16.838 11.902h137.013v20.294c0 .041 0 .083.001.124.34 20.47-8.778 40.813-12.898 48.93h-19.723c-4.143 0-7.5 3.357-7.5 7.5s3.357 7.5 7.5 7.5h24.208 147.066 24.209c4.143 0 7.5-3.357 7.5-7.5s-3.357-7.5-7.5-7.5h-19.732c-4.124-8.097-13.231-28.372-12.89-48.93.001-.041.001-.083.001-.124v-20.294h137.014c7.702 0 14.264-4.902 16.78-11.742.707-1.921 1.112-3.985 1.112-6.148v-.002-153.667h3.242c4.143 0 7.5-3.357 7.5-7.5s-3.358-7.5-7.501-7.5zm-222.214-207.73c5.865-5.957 12.91-10.737 20.627-13.956 7.312-3.05 15.03-4.602 22.729-4.741 16.5-.299 32.916 5.889 45.079 17.726 12.134 11.808 18.878 27.633 18.99 44.562.147 22.219-11.648 43.074-30.784 54.428-4.843 2.874-8.927 7.052-11.81 12.084l-19.497 34.028-19.948-33.767c-2.947-4.99-7.093-9.117-11.987-11.936-19.067-10.983-31.13-31.449-31.479-53.41-.267-16.73 6.347-33.102 18.08-45.018zm-122.932 95.048c0-2.006 1.632-3.638 3.638-3.638h102.399c6.144 8.002 13.85 14.855 22.809 20.016 2.656 1.53 4.925 3.801 6.559 6.566l20.751 35.126c2.563 4.339 7.088 6.92 12.119 6.92.033 0 .065 0 .098-.001 5.071-.033 9.604-2.681 12.126-7.081l6.139-10.714v115.033c0 4.143 3.357 7.5 7.5 7.5s7.5-3.357 7.5-7.5v-101.741h90.604c.858 0 1.583.933 1.583 2.036v50.16h-69.537c-4.143 0-7.5 3.357-7.5 7.5s3.357 7.5 7.5 7.5h69.535v106.94h-92.187v-37.662c0-4.143-3.357-7.5-7.5-7.5s-7.5 3.357-7.5 7.5v37.662h-186.636zm-83.147 32.815c0-1.595 1.297-2.892 2.892-2.892h65.255v15.563h-33.483c-9.144 0-16.583 7.643-16.583 17.036v172.101h-18.081zm68.147 27.671v174.137h-35.066v-172.101c0-1.104.725-2.036 1.583-2.036zm75.486 308.102c5.05-11.354 11.576-29.852 11.271-49.114v-20.233h100.242v20.234c-.305 19.262 6.223 37.759 11.271 49.113zm266.418-87.239c0 .323-.065.629-.164.919-.387 1.141-1.458 1.97-2.732 1.97h-404.259c-1.273 0-2.345-.829-2.732-1.97-.098-.291-.164-.596-.164-.919v-31.727h410.051zm0-46.727h-18.081v-106.94h18.081zm0-121.94h-18.081v-50.16c0-9.394-7.439-17.036-16.583-17.036h-90.604v-15.563h122.377c1.595 0 2.892 1.297 2.892 2.892v79.867z"/></g></g></svg>